<svg width="3464" height="1500" viewBox="0 0 3464 1500" xmlns="http://www.w3.org/2000/svg">
  <!-- Modern Office Background -->
  <defs>
    <linearGradient id="floorGradient" x1="0%" y1="0%" x2="100%" y2="100%">
      <stop offset="0%" style="stop-color:#f8f9fa;stop-opacity:1" />
      <stop offset="100%" style="stop-color:#e9ecef;stop-opacity:1" />
    </linearGradient>
    <linearGradient id="wallGradient" x1="0%" y1="0%" x2="0%" y2="100%">
      <stop offset="0%" style="stop-color:#ffffff;stop-opacity:1" />
      <stop offset="100%" style="stop-color:#f1f3f4;stop-opacity:1" />
    </linearGradient>
    <linearGradient id="deskGradient" x1="0%" y1="0%" x2="100%" y2="100%">
      <stop offset="0%" style="stop-color:#8b7355;stop-opacity:1" />
      <stop offset="100%" style="stop-color:#6d5b47;stop-opacity:1" />
    </linearGradient>
  </defs>
  
  <!-- Background Floor -->
  <rect width="3464" height="1500" fill="url(#floorGradient)"/>
  
  <!-- Back Wall -->
  <rect x="0" y="0" width="3464" height="600" fill="url(#wallGradient)"/>
  
  <!-- Office Furniture and Elements -->
  
  <!-- Desk 1 -->
  <rect x="200" y="800" width="400" height="200" fill="url(#deskGradient)" rx="8"/>
  <rect x="220" y="780" width="30" height="40" fill="#4a5568" rx="4"/>
  <rect x="570" y="780" width="30" height="40" fill="#4a5568" rx="4"/>
  
  <!-- Desk 2 -->
  <rect x="800" y="600" width="400" height="200" fill="url(#deskGradient)" rx="8"/>
  <rect x="820" y="580" width="30" height="40" fill="#4a5568" rx="4"/>
  <rect x="1170" y="580" width="30" height="40" fill="#4a5568" rx="4"/>
  
  <!-- Desk 3 -->
  <rect x="1400" y="900" width="400" height="200" fill="url(#deskGradient)" rx="8"/>
  <rect x="1420" y="880" width="30" height="40" fill="#4a5568" rx="4"/>
  <rect x="1770" y="880" width="30" height="40" fill="#4a5568" rx="4"/>
  
  <!-- Meeting Table -->
  <ellipse cx="2200" cy="700" rx="300" ry="150" fill="#8b7355"/>
  
  <!-- Chairs -->
  <circle cx="250" cy="900" r="25" fill="#2d3748"/>
  <circle cx="550" cy="900" r="25" fill="#2d3748"/>
  <circle cx="850" cy="700" r="25" fill="#2d3748"/>
  <circle cx="1150" cy="700" r="25" fill="#2d3748"/>
  <circle cx="1450" cy="1000" r="25" fill="#2d3748"/>
  <circle cx="1750" cy="1000" r="25" fill="#2d3748"/>
  
  <!-- Conference Chairs -->
  <circle cx="1950" cy="650" r="20" fill="#4a5568"/>
  <circle cx="2450" cy="650" r="20" fill="#4a5568"/>
  <circle cx="1950" cy="750" r="20" fill="#4a5568"/>
  <circle cx="2450" cy="750" r="20" fill="#4a5568"/>
  
  <!-- Office Plants -->
  <ellipse cx="100" cy="1200" rx="40" ry="60" fill="#48bb78"/>
  <ellipse cx="100" cy="1180" rx="35" ry="50" fill="#68d391"/>
  
  <ellipse cx="2800" cy="1000" rx="40" ry="60" fill="#48bb78"/>
  <ellipse cx="2800" cy="980" rx="35" ry="50" fill="#68d391"/>
  
  <!-- Windows -->
  <rect x="50" y="100" width="150" height="300" fill="#e2e8f0" stroke="#cbd5e0" stroke-width="8" rx="8"/>
  <rect x="300" y="100" width="150" height="300" fill="#e2e8f0" stroke="#cbd5e0" stroke-width="8" rx="8"/>
  <rect x="550" y="100" width="150" height="300" fill="#e2e8f0" stroke="#cbd5e0" stroke-width="8" rx="8"/>
  <rect x="800" y="100" width="150" height="300" fill="#e2e8f0" stroke="#cbd5e0" stroke-width="8" rx="8"/>
  
  <!-- Laptops/Monitors -->
  <rect x="280" y="820" width="40" height="30" fill="#2d3748" rx="2"/>
  <rect x="330" y="820" width="40" height="30" fill="#2d3748" rx="2"/>
  <rect x="880" y="620" width="40" height="30" fill="#2d3748" rx="2"/>
  <rect x="930" y="620" width="40" height="30" fill="#2d3748" rx="2"/>
  <rect x="1480" y="920" width="40" height="30" fill="#2d3748" rx="2"/>
  <rect x="1530" y="920" width="40" height="30" fill="#2d3748" rx="2"/>
  
  <!-- Ceiling Lights -->
  <ellipse cx="400" cy="50" rx="80" ry="30" fill="#f7fafc" opacity="0.8"/>
  <ellipse cx="1000" cy="50" rx="80" ry="30" fill="#f7fafc" opacity="0.8"/>
  <ellipse cx="1600" cy="50" rx="80" ry="30" fill="#f7fafc" opacity="0.8"/>
  <ellipse cx="2200" cy="50" rx="80" ry="30" fill="#f7fafc" opacity="0.8"/>
  
  <!-- Office Dividers/Panels -->
  <rect x="700" y="400" width="8" height="400" fill="#e2e8f0"/>
  <rect x="1300" y="600" width="8" height="400" fill="#e2e8f0"/>
  <rect x="1900" y="400" width="8" height="600" fill="#e2e8f0"/>
  
  <!-- Bookshelf -->
  <rect x="3200" y="200" width="200" height="600" fill="#8b7355"/>
  <rect x="3210" y="250" width="180" height="8" fill="#6d5b47"/>
  <rect x="3210" y="350" width="180" height="8" fill="#6d5b47"/>
  <rect x="3210" y="450" width="180" height="8" fill="#6d5b47"/>
  <rect x="3210" y="550" width="180" height="8" fill="#6d5b47"/>
  <rect x="3210" y="650" width="180" height="8" fill="#6d5b47"/>
  <rect x="3210" y="750" width="180" height="8" fill="#6d5b47"/>
  
  <!-- Filing Cabinets -->
  <rect x="2900" y="1200" width="80" height="180" fill="#718096" rx="4"/>
  <rect x="3000" y="1200" width="80" height="180" fill="#718096" rx="4"/>
  
  <!-- Coffee Station -->
  <rect x="2700" y="200" width="120" height="80" fill="#8b7355" rx="8"/>
  <rect x="2720" y="180" width="20" height="40" fill="#4a5568" rx="4"/>
  <rect x="2780" y="180" width="20" height="40" fill="#4a5568" rx="4"/>
  
  <!-- Printer/Office Equipment -->
  <rect x="3000" y="900" width="100" height="60" fill="#4a5568" rx="4"/>
  <rect x="3010" y="890" width="80" height="20" fill="#2d3748" rx="2"/>
  
  <!-- Whiteboards -->
  <rect x="1200" y="150" width="200" height="120" fill="#ffffff" stroke="#e2e8f0" stroke-width="4" rx="4"/>
  <rect x="2600" y="150" width="200" height="120" fill="#ffffff" stroke="#e2e8f0" stroke-width="4" rx="4"/>
  
  <!-- Soft shadows and depth -->
  <ellipse cx="400" cy="1450" rx="200" ry="30" fill="#000000" opacity="0.1"/>
  <ellipse cx="1000" cy="1450" rx="200" ry="30" fill="#000000" opacity="0.1"/>
  <ellipse cx="1600" cy="1450" rx="200" ry="30" fill="#000000" opacity="0.1"/>
  <ellipse cx="2200" cy="1450" rx="300" ry="40" fill="#000000" opacity="0.1"/>
</svg>